<?xml version="1.0" encoding="UTF-8"?>
<svg xmlns="http://www.w3.org/2000/svg" xmlns:xlink="http://www.w3.org/1999/xlink" width="120pt" height="120pt" viewBox="0 0 120 120" version="1.1">
<g id="surface1">
<path style=" stroke:none;fill-rule:nonzero;fill:rgb(100%,44.705882%,49.019608%);fill-opacity:1;" d="M 103.199219 60 C 103.199219 63.976562 99.976562 67.199219 96 67.199219 C 92.023438 67.199219 88.800781 63.976562 88.800781 60 C 88.800781 56.023438 92.023438 52.800781 96 52.800781 C 99.976562 52.800781 103.199219 56.023438 103.199219 60 Z M 103.199219 60 "/>
<path style=" stroke:none;fill-rule:nonzero;fill:rgb(100%,44.705882%,49.019608%);fill-opacity:0.87451;" d="M 90.546875 90.546875 C 87.734375 93.359375 83.175781 93.359375 80.363281 90.546875 C 77.554688 87.734375 77.554688 83.175781 80.363281 80.363281 C 83.175781 77.554688 87.734375 77.554688 90.546875 80.363281 C 93.359375 83.175781 93.359375 87.734375 90.546875 90.546875 Z M 90.546875 90.546875 "/>
<path style=" stroke:none;fill-rule:nonzero;fill:rgb(100%,44.705882%,49.019608%);fill-opacity:0.74902;" d="M 60 103.199219 C 56.023438 103.199219 52.800781 99.976562 52.800781 96 C 52.800781 92.023438 56.023438 88.800781 60 88.800781 C 63.976562 88.800781 67.199219 92.023438 67.199219 96 C 67.199219 99.976562 63.976562 103.199219 60 103.199219 Z M 60 103.199219 "/>
<path style=" stroke:none;fill-rule:nonzero;fill:rgb(100%,44.705882%,49.019608%);fill-opacity:0.623529;" d="M 29.453125 90.546875 C 26.640625 87.734375 26.640625 83.175781 29.453125 80.363281 C 32.265625 77.554688 36.824219 77.554688 39.636719 80.363281 C 42.445312 83.175781 42.445312 87.734375 39.636719 90.546875 C 36.824219 93.359375 32.265625 93.359375 29.453125 90.546875 Z M 29.453125 90.546875 "/>
<path style=" stroke:none;fill-rule:nonzero;fill:rgb(100%,44.705882%,49.019608%);fill-opacity:0.501961;" d="M 16.800781 60 C 16.800781 56.023438 20.023438 52.800781 24 52.800781 C 27.976562 52.800781 31.199219 56.023438 31.199219 60 C 31.199219 63.976562 27.976562 67.199219 24 67.199219 C 20.023438 67.199219 16.800781 63.976562 16.800781 60 Z M 16.800781 60 "/>
<path style=" stroke:none;fill-rule:nonzero;fill:rgb(100%,44.705882%,49.019608%);fill-opacity:0.376471;" d="M 29.453125 29.453125 C 32.265625 26.640625 36.824219 26.640625 39.636719 29.453125 C 42.445312 32.265625 42.445312 36.824219 39.636719 39.636719 C 36.824219 42.445312 32.265625 42.445312 29.453125 39.636719 C 26.640625 36.824219 26.640625 32.265625 29.453125 29.453125 Z M 29.453125 29.453125 "/>
<path style=" stroke:none;fill-rule:nonzero;fill:rgb(100%,44.705882%,49.019608%);fill-opacity:0.25098;" d="M 60 16.800781 C 63.976562 16.800781 67.199219 20.023438 67.199219 24 C 67.199219 27.976562 63.976562 31.199219 60 31.199219 C 56.023438 31.199219 52.800781 27.976562 52.800781 24 C 52.800781 20.023438 56.023438 16.800781 60 16.800781 Z M 60 16.800781 "/>
<path style=" stroke:none;fill-rule:nonzero;fill:rgb(100%,44.705882%,49.019608%);fill-opacity:0.12549;" d="M 90.546875 29.453125 C 93.359375 32.265625 93.359375 36.824219 90.546875 39.636719 C 87.734375 42.445312 83.175781 42.445312 80.363281 39.636719 C 77.554688 36.824219 77.554688 32.265625 80.363281 29.453125 C 83.175781 26.640625 87.734375 26.640625 90.546875 29.453125 Z M 90.546875 29.453125 "/>
</g>
</svg>
